<mxfile host="app.diagrams.net" modified="2023-05-15T06:49:34.238Z" agent="Mozilla/5.0 (Macintosh; Intel Mac OS X 10_15_7) AppleWebKit/537.36 (KHTML, like Gecko) Chrome/113.0.0.0 Safari/537.36" version="21.3.0" etag="TJJZ5DJED7MkRZMDn56h" type="github">
  <diagram name="第 1 页" id="aY7ZPSBi9o6vwpMyvL_M">
    <mxGraphModel>
      <root>
        <mxCell id="0" />
        <mxCell id="1" parent="0" />
        <mxCell id="2" value="Monitoring" style="whiteSpace=wrap;strokeWidth=2;verticalAlign=top;" vertex="1" parent="1">
          <mxGeometry y="25" width="148" height="252" as="geometry" />
        </mxCell>
        <mxCell id="3" value="Graphite" style="whiteSpace=wrap;strokeWidth=2;" vertex="1" parent="2">
          <mxGeometry x="43" y="117" width="78" height="34" as="geometry" />
        </mxCell>
        <mxCell id="4" value="StatsD" style="whiteSpace=wrap;strokeWidth=2;" vertex="1" parent="2">
          <mxGeometry x="52" y="33" width="60" height="34" as="geometry" />
        </mxCell>
        <mxCell id="5" value="Grafana" style="whiteSpace=wrap;strokeWidth=2;" vertex="1" parent="2">
          <mxGeometry x="46" y="201" width="72" height="34" as="geometry" />
        </mxCell>
        <mxCell id="6" value="" style="curved=1;startArrow=none;endArrow=block;exitX=0.49778645833333335;exitY=1;entryX=0.49829727564102566;entryY=0;" edge="1" parent="2" source="4" target="3">
          <mxGeometry relative="1" as="geometry">
            <Array as="points" />
          </mxGeometry>
        </mxCell>
        <mxCell id="7" value="" style="curved=1;dashed=1;dashPattern=2 3;startArrow=none;endArrow=block;exitX=0.49829727564102566;exitY=1;entryX=0.4981553819444444;entryY=0;" edge="1" parent="2" source="3" target="5">
          <mxGeometry relative="1" as="geometry">
            <Array as="points" />
          </mxGeometry>
        </mxCell>
        <mxCell id="8" value="External Services" style="whiteSpace=wrap;strokeWidth=2;verticalAlign=top;" vertex="1" parent="1">
          <mxGeometry x="183" width="355" height="495" as="geometry" />
        </mxCell>
        <mxCell id="9" value="Payment Service" style="whiteSpace=wrap;strokeWidth=2;" vertex="1" parent="1">
          <mxGeometry x="218" y="134" width="133" height="34" as="geometry" />
        </mxCell>
        <mxCell id="10" value="Log Service" style="whiteSpace=wrap;strokeWidth=2;" vertex="1" parent="1">
          <mxGeometry x="401" y="134" width="96" height="34" as="geometry" />
        </mxCell>
        <mxCell id="11" value="Logstash" style="whiteSpace=wrap;strokeWidth=2;" vertex="1" parent="1">
          <mxGeometry x="411" y="352" width="76" height="34" as="geometry" />
        </mxCell>
        <mxCell id="12" value="Elasticsearch" style="whiteSpace=wrap;strokeWidth=2;" vertex="1" parent="1">
          <mxGeometry x="395" y="436" width="109" height="34" as="geometry" />
        </mxCell>
        <mxCell id="13" value="Data Layer" style="whiteSpace=wrap;strokeWidth=2;verticalAlign=top;" vertex="1" parent="1">
          <mxGeometry x="609" y="327" width="332" height="168" as="geometry" />
        </mxCell>
        <mxCell id="14" value="Elasticsearch" style="whiteSpace=wrap;strokeWidth=2;" vertex="1" parent="1">
          <mxGeometry x="794" y="436" width="109" height="34" as="geometry" />
        </mxCell>
        <mxCell id="15" value="Search Engine" style="whiteSpace=wrap;strokeWidth=2;" vertex="1" parent="1">
          <mxGeometry x="739" y="352" width="115" height="34" as="geometry" />
        </mxCell>
        <mxCell id="16" value="Redis Cache" style="whiteSpace=wrap;strokeWidth=2;" vertex="1" parent="1">
          <mxGeometry x="644" y="436" width="101" height="34" as="geometry" />
        </mxCell>
        <mxCell id="17" value="Application Layer" style="whiteSpace=wrap;strokeWidth=2;verticalAlign=top;" vertex="1" parent="1">
          <mxGeometry x="1012" width="512" height="604" as="geometry" />
        </mxCell>
        <mxCell id="18" value="MySQL Master" style="whiteSpace=wrap;strokeWidth=2;" vertex="1" parent="1">
          <mxGeometry x="1057" y="352" width="113" height="34" as="geometry" />
        </mxCell>
        <mxCell id="19" value="Order Service" style="whiteSpace=wrap;strokeWidth=2;" vertex="1" parent="1">
          <mxGeometry x="1047" y="134" width="112" height="34" as="geometry" />
        </mxCell>
        <mxCell id="20" value="Product Service" style="whiteSpace=wrap;strokeWidth=2;" vertex="1" parent="1">
          <mxGeometry x="1209" y="134" width="126" height="34" as="geometry" />
        </mxCell>
        <mxCell id="21" value="User Service" style="whiteSpace=wrap;strokeWidth=2;" vertex="1" parent="1">
          <mxGeometry x="1386" y="134" width="103" height="34" as="geometry" />
        </mxCell>
        <mxCell id="22" value="Redis" style="whiteSpace=wrap;strokeWidth=2;" vertex="1" parent="1">
          <mxGeometry x="1292" y="545" width="52" height="34" as="geometry" />
        </mxCell>
        <mxCell id="23" value="Recommendation Service" style="whiteSpace=wrap;strokeWidth=2;" vertex="1" parent="1">
          <mxGeometry x="1127" y="436" width="195" height="34" as="geometry" />
        </mxCell>
        <mxCell id="24" value="Web Layer" style="whiteSpace=wrap;strokeWidth=2;verticalAlign=top;" vertex="1" parent="1">
          <mxGeometry x="573" y="25" width="404" height="252" as="geometry" />
        </mxCell>
        <mxCell id="25" value="Nginx" style="whiteSpace=wrap;strokeWidth=2;" vertex="1" parent="24">
          <mxGeometry x="183" y="117" width="55" height="34" as="geometry" />
        </mxCell>
        <mxCell id="26" value="Load Balancer" style="whiteSpace=wrap;strokeWidth=2;" vertex="1" parent="24">
          <mxGeometry x="152" y="33" width="116" height="34" as="geometry" />
        </mxCell>
        <mxCell id="27" value="PHP-FPM" style="whiteSpace=wrap;strokeWidth=2;" vertex="1" parent="24">
          <mxGeometry x="43" y="201" width="78" height="34" as="geometry" />
        </mxCell>
        <mxCell id="28" value="PHP-FPM" style="whiteSpace=wrap;strokeWidth=2;" vertex="1" parent="24">
          <mxGeometry x="171" y="201" width="78" height="34" as="geometry" />
        </mxCell>
        <mxCell id="29" value="PHP-FPM" style="whiteSpace=wrap;strokeWidth=2;" vertex="1" parent="24">
          <mxGeometry x="299" y="201" width="78" height="34" as="geometry" />
        </mxCell>
        <mxCell id="30" value="" style="curved=1;startArrow=none;endArrow=block;exitX=0.49818157327586204;exitY=1;entryX=0.4870738636363636;entryY=0;" edge="1" parent="24" source="26" target="25">
          <mxGeometry relative="1" as="geometry">
            <Array as="points" />
          </mxGeometry>
        </mxCell>
        <mxCell id="31" value="" style="curved=1;startArrow=none;endArrow=block;exitX=-0.008948863636363637;exitY=0.763573692950234;entryX=0.4990985576923077;entryY=0;" edge="1" parent="24" source="25" target="27">
          <mxGeometry relative="1" as="geometry">
            <Array as="points">
              <mxPoint x="82" y="176" />
            </Array>
          </mxGeometry>
        </mxCell>
        <mxCell id="32" value="" style="curved=1;startArrow=none;endArrow=block;exitX=0.4870738636363636;exitY=1;entryX=0.4972956730769231;entryY=0;" edge="1" parent="24" source="25" target="28">
          <mxGeometry relative="1" as="geometry">
            <Array as="points" />
          </mxGeometry>
        </mxCell>
        <mxCell id="33" value="" style="curved=1;startArrow=none;endArrow=block;exitX=0.983096590909091;exitY=0.763573692950234;entryX=0.49549278846153844;entryY=0;" edge="1" parent="24" source="25" target="29">
          <mxGeometry relative="1" as="geometry">
            <Array as="points">
              <mxPoint x="338" y="176" />
            </Array>
          </mxGeometry>
        </mxCell>
        <mxCell id="34" value="" style="curved=1;startArrow=none;endArrow=block;exitX=0.5000348772321429;exitY=1;entryX=0.45979015223345987;entryY=0;" edge="1" parent="1" source="19" target="18">
          <mxGeometry relative="1" as="geometry">
            <Array as="points">
              <mxPoint x="1103" y="327" />
            </Array>
          </mxGeometry>
        </mxCell>
        <mxCell id="35" value="" style="curved=1;startArrow=none;endArrow=block;exitX=0.43638988259487005;exitY=1;entryX=0.79898532975137;entryY=0;" edge="1" parent="1" source="20" target="18">
          <mxGeometry relative="1" as="geometry">
            <Array as="points">
              <mxPoint x="1198" y="302" />
              <mxPoint x="1198" y="327" />
            </Array>
          </mxGeometry>
        </mxCell>
        <mxCell id="36" value="" style="curved=1;startArrow=none;endArrow=block;exitX=0.40751206559827585;exitY=1;entryX=0.9938813606194691;entryY=0.21237796963517794;" edge="1" parent="1" source="21" target="18">
          <mxGeometry relative="1" as="geometry">
            <Array as="points">
              <mxPoint x="1355" y="302" />
              <mxPoint x="1355" y="327" />
            </Array>
          </mxGeometry>
        </mxCell>
        <mxCell id="37" value="" style="curved=1;startArrow=none;endArrow=block;exitX=0.5001802884615385;exitY=1;entryX=-0.0006009615384615385;entryY=0.15461458964924024;" edge="1" parent="1" source="23" target="22">
          <mxGeometry relative="1" as="geometry">
            <Array as="points">
              <mxPoint x="1225" y="520" />
            </Array>
          </mxGeometry>
        </mxCell>
        <mxCell id="38" value="" style="curved=1;startArrow=none;endArrow=block;exitX=0.4976107402912621;exitY=1;entryX=1.0060096153846154;entryY=0.2285780150121234;" edge="1" parent="1" source="21" target="22">
          <mxGeometry relative="1" as="geometry">
            <Array as="points">
              <mxPoint x="1437" y="520" />
            </Array>
          </mxGeometry>
        </mxCell>
        <mxCell id="39" value="" style="curved=1;startArrow=none;endArrow=block;exitX=0.4987771739130435;exitY=1;entryX=0.3071056547619045;entryY=0;" edge="1" parent="1" source="15" target="14">
          <mxGeometry relative="1" as="geometry">
            <Array as="points">
              <mxPoint x="796" y="411" />
            </Array>
          </mxGeometry>
        </mxCell>
        <mxCell id="40" value="" style="curved=1;startArrow=none;endArrow=block;exitX=0.49620977722772275;exitY=1;entryX=-0.0006009615384615385;entryY=0.2977550377969531;" edge="1" parent="1" source="16" target="22">
          <mxGeometry relative="1" as="geometry">
            <Array as="points">
              <mxPoint x="694" y="495" />
              <mxPoint x="1158" y="520" />
            </Array>
          </mxGeometry>
        </mxCell>
        <mxCell id="41" value="" style="curved=1;startArrow=none;endArrow=block;exitX=0.33229462968815865;exitY=1;entryX=0.9938892326732673;entryY=0.33366193290413215;" edge="1" parent="1" source="18" target="16">
          <mxGeometry relative="1" as="geometry">
            <Array as="points">
              <mxPoint x="1067" y="411" />
            </Array>
          </mxGeometry>
        </mxCell>
        <mxCell id="42" value="" style="curved=1;startArrow=none;endArrow=block;exitX=0.9867865702697004;exitY=1;entryX=0.9989248853211009;entryY=0.3330875270630128;" edge="1" parent="1" source="18" target="14">
          <mxGeometry relative="1" as="geometry">
            <Array as="points">
              <mxPoint x="1250" y="411" />
            </Array>
          </mxGeometry>
        </mxCell>
        <mxCell id="43" value="" style="curved=1;startArrow=none;endArrow=block;exitX=0.5589130088431624;exitY=1;entryX=0.9989248853211009;entryY=0.3621639440334046;" edge="1" parent="1" source="20" target="14">
          <mxGeometry relative="1" as="geometry">
            <Array as="points">
              <mxPoint x="1335" y="302" />
              <mxPoint x="1335" y="411" />
            </Array>
          </mxGeometry>
        </mxCell>
        <mxCell id="44" value="" style="curved=1;startArrow=none;endArrow=block;exitX=0.544969971629267;exitY=1;entryX=0.9989248853211009;entryY=0.39395555229119805;" edge="1" parent="1" source="21" target="14">
          <mxGeometry relative="1" as="geometry">
            <Array as="points">
              <mxPoint x="1481" y="302" />
              <mxPoint x="1481" y="411" />
            </Array>
          </mxGeometry>
        </mxCell>
        <mxCell id="45" value="" style="curved=1;dashed=1;dashPattern=2 3;startArrow=none;endArrow=block;exitX=0.49829652255639095;exitY=1;entryX=-0.0026617809734513272;entryY=0.41607301542850905;" edge="1" parent="1" source="9" target="18">
          <mxGeometry relative="1" as="geometry">
            <Array as="points">
              <mxPoint x="284" y="327" />
            </Array>
          </mxGeometry>
        </mxCell>
        <mxCell id="46" value="" style="curved=1;dashed=1;dashPattern=2 3;startArrow=none;endArrow=block;exitX=0.499267578125;exitY=1;entryX=0.49907483552631576;entryY=0;" edge="1" parent="1" source="10" target="11">
          <mxGeometry relative="1" as="geometry">
            <Array as="points" />
          </mxGeometry>
        </mxCell>
        <mxCell id="47" value="" style="curved=1;dashed=1;dashPattern=2 3;startArrow=none;endArrow=block;exitX=0.49907483552631576;exitY=1;entryX=0.4947677752293578;entryY=0;" edge="1" parent="1" source="11" target="12">
          <mxGeometry relative="1" as="geometry">
            <Array as="points" />
          </mxGeometry>
        </mxCell>
      </root>
    </mxGraphModel>
  </diagram>
</mxfile>
